# This file uses centimeters as units for non-parametric coordinates.

mtllib Quad.mtl
g default
v -0.500000 -0.500000 0.500000
v -0.500000 -0.500000 -0.500000
v -0.500000 0.500000 0.500000
v -0.500000 0.500000 -0.500000
v 0.500000 -0.500000 0.500000
v 0.500000 -0.500000 -0.500000
v 0.500000 0.500000 0.500000
v 0.500000 0.500000 -0.500000
v -0.500000 -0.500000 0.500000
v -0.500000 0.500000 0.500000
v 0.500000 -0.500000 0.500000
v 0.500000 0.500000 0.500000
v -0.500000 -0.500000 -0.500000
v -0.500000 0.500000 -0.500000
v 0.500000 -0.500000 -0.500000
v 0.500000 0.500000 -0.500000
v -0.500000 -0.500000 0.500000
v 0.500000 -0.500000 0.500000
v -0.500000 -0.500000 -0.500000
v 0.500000 -0.500000 -0.500000
v -0.500000 0.500000 0.500000
v 0.500000 0.500000 0.500000
v -0.500000 0.500000 -0.500000
v 0.500000 0.500000 -0.500000
vt 0.331370 0.331472
vt 0.001891 0.001992
vt 0.331370 0.001992
vt 0.001891 0.331472
vt 0.338705 0.001992
vt 0.668185 0.001992
vt 0.338705 0.331472
vt 0.668185 0.331472
vt 0.001890 0.668528
vt 0.331370 0.998008
vt 0.001890 0.998008
vt 0.331370 0.668528
vt 0.338705 0.668528
vt 0.668185 0.668528
vt 0.338705 0.998008
vt 0.668185 0.998008
vt 0.947139 0.335260
vt 0.617659 0.664740
vt 0.617659 0.335260
vt 0.947139 0.664740
vt 0.282356 0.664740
vt 0.282356 0.335260
vt 0.611836 0.664740
vt 0.611836 0.335260
vn -1.000000 0.000000 0.000000
vn -1.000000 0.000000 0.000000
vn -1.000000 0.000000 0.000000
vn -1.000000 0.000000 0.000000
vn -1.000000 0.000000 0.000000
vn -1.000000 0.000000 0.000000
vn 1.000000 0.000000 0.000000
vn 1.000000 0.000000 0.000000
vn 1.000000 0.000000 0.000000
vn 1.000000 0.000000 0.000000
vn 1.000000 0.000000 0.000000
vn 1.000000 0.000000 0.000000
vn 0.000000 0.000000 1.000000
vn 0.000000 0.000000 1.000000
vn 0.000000 0.000000 1.000000
vn 0.000000 0.000000 1.000000
vn 0.000000 0.000000 1.000000
vn 0.000000 0.000000 1.000000
vn 0.000000 0.000000 -1.000000
vn 0.000000 0.000000 -1.000000
vn 0.000000 0.000000 -1.000000
vn 0.000000 0.000000 -1.000000
vn 0.000000 0.000000 -1.000000
vn 0.000000 0.000000 -1.000000
vn 0.000000 -1.000000 0.000000
vn 0.000000 -1.000000 0.000000
vn 0.000000 -1.000000 0.000000
vn 0.000000 -1.000000 0.000000
vn 0.000000 -1.000000 0.000000
vn 0.000000 -1.000000 0.000000
vn 0.000000 1.000000 0.000000
vn 0.000000 1.000000 0.000000
vn 0.000000 1.000000 0.000000
vn 0.000000 1.000000 0.000000
vn 0.000000 1.000000 0.000000
vn 0.000000 1.000000 0.000000
s off
g quad:Mesh
usemtl initialShadingGroup
f 3/1/1 2/2/2 1/3/3
f 4/4/4 2/2/5 3/1/6
f 5/5/7 6/6/8 7/7/9
f 7/7/10 6/6/11 8/8/12
f 11/17/13 10/18/14 9/19/15
f 12/20/16 10/18/17 11/17/18
f 13/21/19 14/22/20 15/23/21
f 15/23/22 14/22/23 16/24/24
f 19/9/25 18/10/26 17/11/27
f 20/12/28 18/10/29 19/9/30
f 21/13/31 22/14/32 23/15/33
f 23/15/34 22/14/35 24/16/36
